<svg xmlns="http://www.w3.org/2000/svg" width="23" height="23" viewBox="0 0 23 23">
  <g id="vuesax_outline_info-circle" data-name="vuesax/outline/info-circle" transform="translate(-364 -252)">
    <g id="info-circle" transform="translate(364 252)">
      <path id="Vector" d="M10.25,20.5A10.25,10.25,0,1,1,20.5,10.25,10.259,10.259,0,0,1,10.25,20.5Zm0-19.07a8.82,8.82,0,1,0,8.82,8.82A8.83,8.83,0,0,0,10.25,1.43Z" transform="translate(1.25 1.25)" fill="#393939"/>
      <path id="Vector-2" data-name="Vector" d="M.75,6.5A.755.755,0,0,1,0,5.75v-5A.755.755,0,0,1,.75,0,.755.755,0,0,1,1.5.75v5A.755.755,0,0,1,.75,6.5Z" transform="translate(10.75 6.836)" fill="#393939"/>
      <path id="Vector-3" data-name="Vector" d="M1,2a1,1,0,0,1-.38-.08A1.155,1.155,0,0,1,.29,1.7a1.032,1.032,0,0,1-.21-.33A1,1,0,0,1,0,1,1,1,0,0,1,.08.615,1.155,1.155,0,0,1,.29.285,1.155,1.155,0,0,1,.62.075a1,1,0,0,1,.76,0,1.155,1.155,0,0,1,.33.21,1.155,1.155,0,0,1,.21.33A1,1,0,0,1,2,1a1,1,0,0,1-.08.38,1.032,1.032,0,0,1-.21.33,1.155,1.155,0,0,1-.33.21A1,1,0,0,1,1,2Z" transform="translate(10.5 14.323)" fill="#393939"/>
      <path id="Vector-4" data-name="Vector" d="M0,0H23V23H0Z" fill="none" opacity="0"/>
    </g>
  </g>
</svg>
