<svg xmlns="http://www.w3.org/2000/svg" width="22" height="22" viewBox="0 0 22 22">
  <g id="vuesax_outline_moon" data-name="vuesax/outline/moon" transform="translate(-108 -188)">
    <g id="moon" transform="translate(108 188)">
      <path id="Vector" d="M10.134,19.5c-.154,0-.307,0-.461-.009A10.2,10.2,0,0,1,.026,10.187,10.039,10.039,0,0,1,6.165.229C7.3-.243,7.892.12,8.145.383a1.618,1.618,0,0,1,.136,1.923,7.454,7.454,0,0,0-.615,3.038A7.745,7.745,0,0,0,16.8,12.818c1.193-.218,1.691.263,1.881.571s.407.97-.316,1.95A10.145,10.145,0,0,1,10.134,19.5ZM1.373,10.088a8.812,8.812,0,0,0,15.886,4.453,1.814,1.814,0,0,0,.226-.4,1.418,1.418,0,0,0-.452.027,9.434,9.434,0,0,1-2.025.136A9.135,9.135,0,0,1,6.3,5.362,8.872,8.872,0,0,1,7.042,1.77a1.315,1.315,0,0,0,.118-.408A1.205,1.205,0,0,0,6.7,1.48,8.709,8.709,0,0,0,1.373,10.088Z" transform="translate(1.252 1.248)" fill="#393939"/>
      <path id="Vector-2" data-name="Vector" d="M0,0H22V22H0Z" fill="none" opacity="0"/>
    </g>
  </g>
</svg>
