<svg xmlns="http://www.w3.org/2000/svg" width="18" height="18" viewBox="0 0 18 18">
  <g id="vuesax_outline_calendar-2" data-name="vuesax/outline/calendar-2" transform="translate(-112 -247)">
    <g id="calendar-2" transform="translate(112 247)">
      <path id="Vector" d="M.75,4.5A.755.755,0,0,1,0,3.75v-3A.755.755,0,0,1,.75,0,.755.755,0,0,1,1.5.75v3A.755.755,0,0,1,.75,4.5Z" transform="translate(5.317 1.25)" fill="#797979"/>
      <path id="Vector-2" data-name="Vector" d="M.75,4.5A.755.755,0,0,1,0,3.75v-3A.755.755,0,0,1,.75,0,.755.755,0,0,1,1.5.75v3A.755.755,0,0,1,.75,4.5Z" transform="translate(11.183 1.25)" fill="#797979"/>
      <path id="Vector-3" data-name="Vector" d="M11.993,1.5H.507C.23,1.5,0,1.16,0,.75S.23,0,.507,0H11.993c.277,0,.507.34.507.75S12.27,1.5,11.993,1.5Z" transform="translate(2.75 6.116)" fill="#797979"/>
      <path id="Vector-4" data-name="Vector" d="M9.519,14H3.981C1.454,14,0,12.53,0,9.975V4.025C0,1.47,1.454,0,3.981,0H9.519C12.046,0,13.5,1.47,13.5,4.025v5.95C13.5,12.53,12.046,14,9.519,14ZM3.981,1.05c-1.98,0-2.942.973-2.942,2.975v5.95c0,2,.962,2.975,2.942,2.975H9.519c1.98,0,2.942-.973,2.942-2.975V4.025c0-2-.962-2.975-2.942-2.975Z" transform="translate(2.25 2.75)" fill="#797979"/>
      <path id="Vector-5" data-name="Vector" d="M1,2a1,1,0,0,1-.38-.08,1.155,1.155,0,0,1-.33-.21,1.155,1.155,0,0,1-.21-.33A1,1,0,0,1,0,1,1.052,1.052,0,0,1,.29.29,1.155,1.155,0,0,1,.62.08.956.956,0,0,1,1.2.02a.636.636,0,0,1,.18.06.757.757,0,0,1,.18.09l.15.12a1.576,1.576,0,0,1,.12.15.757.757,0,0,1,.09.18A.636.636,0,0,1,1.98.8,1.355,1.355,0,0,1,2,1a1.052,1.052,0,0,1-.29.71A1.052,1.052,0,0,1,1,2Z" transform="translate(5.455 9.091)" fill="#797979"/>
      <path id="Vector-6" data-name="Vector" d="M1,2a1.052,1.052,0,0,1-.71-.29l-.12-.15a.757.757,0,0,1-.09-.18A.636.636,0,0,1,.02,1.2,1.355,1.355,0,0,1,0,1,1,1,0,0,1,.08.619,1.155,1.155,0,0,1,.29.289,1,1,0,0,1,1.38.079a1.032,1.032,0,0,1,.33.21A1.052,1.052,0,0,1,2,1a1.355,1.355,0,0,1-.02.2.636.636,0,0,1-.06.18.757.757,0,0,1-.09.18l-.12.15a1.032,1.032,0,0,1-.33.21A1,1,0,0,1,1,2Z" transform="translate(8 9.092)" fill="#797979"/>
      <path id="Vector-7" data-name="Vector" d="M1,2a1,1,0,0,1-.38-.08,1.155,1.155,0,0,1-.33-.21,1.032,1.032,0,0,1-.21-.33A1,1,0,0,1,0,1,1.052,1.052,0,0,1,.29.289,1.155,1.155,0,0,1,.62.079a1,1,0,0,1,1.09.21,1.576,1.576,0,0,1,.12.15.757.757,0,0,1,.09.18.6.6,0,0,1,.06.19A1.225,1.225,0,0,1,2,1a1.052,1.052,0,0,1-.29.71A1.052,1.052,0,0,1,1,2Z" transform="translate(5.455 11.637)" fill="#797979"/>
      <path id="Vector-8" data-name="Vector" d="M0,0H18V18H0Z" fill="none" opacity="0"/>
    </g>
  </g>
</svg>
