<svg xmlns="http://www.w3.org/2000/svg" width="15" height="12.692" viewBox="0 0 15 12.692">
  <path id="star" d="M14.96,5.292a.783.783,0,0,0-.686-.483l-4.33-.347L8.233.924a.843.843,0,0,0-1.467,0L5.055,4.461.724,4.808a.785.785,0,0,0-.686.483.653.653,0,0,0,.233.748L3.545,8.574l-.965,3.753a.665.665,0,0,0,.31.727.867.867,0,0,0,.467.134.876.876,0,0,0,.409-.1L7.5,11.117l3.733,1.971a.885.885,0,0,0,.877-.034.665.665,0,0,0,.31-.727l-.965-3.753L14.728,6.04a.653.653,0,0,0,.233-.748ZM7.571,11.079" transform="translate(0 -0.496)" fill="#2f2f2f"/>
</svg>
