<svg id="translate" xmlns="http://www.w3.org/2000/svg" width="21" height="21" viewBox="0 0 21 21">
  <path id="Vector" d="M.681,5.268a.69.69,0,0,1-.612-1L2.023.374A.694.694,0,0,1,2.635,0a.686.686,0,0,1,.612.383L5.2,4.282a.688.688,0,0,1-1.233.612L2.635,2.219,1.3,4.894A.712.712,0,0,1,.681,5.268Z" transform="translate(12.119 11.779)" fill="#393939"/>
  <path id="Vector-2" data-name="Vector" d="M3.9,1.37H.685A.69.69,0,0,1,0,.685.69.69,0,0,1,.685,0H3.9a.685.685,0,1,1,0,1.37Z" transform="translate(12.464 14.971)" fill="#393939"/>
  <path id="Vector-3" data-name="Vector" d="M5.323,10.646a5.323,5.323,0,1,1,5.323-5.323A5.329,5.329,0,0,1,5.323,10.646Zm0-9.267A3.953,3.953,0,1,0,9.277,5.332,3.955,3.955,0,0,0,5.323,1.379Z" transform="translate(9.212 9.213)" fill="#393939"/>
  <path id="Vector-4" data-name="Vector" d="M3.3,10.463A3.3,3.3,0,0,1,.913,9.633,3.506,3.506,0,0,1,0,7.021V3.442A3.106,3.106,0,0,1,3.442,0H7.021A3.484,3.484,0,0,1,9.633.913a3.4,3.4,0,0,1,.831,2.547V7.021a3.4,3.4,0,0,1-.849,2.584,3.452,3.452,0,0,1-2.6.849H3.451A1,1,0,0,1,3.3,10.463Zm.146-9.085c-1.47,0-2.073.6-2.073,2.073V7.03a2.218,2.218,0,0,0,.493,1.625,2.122,2.122,0,0,0,1.552.438h3.6a2.144,2.144,0,0,0,1.616-.457,2.136,2.136,0,0,0,.447-1.6v-3.6a2.117,2.117,0,0,0-.438-1.57,2.218,2.218,0,0,0-1.625-.493Z" transform="translate(1.141 1.132)" fill="#393939"/>
  <path id="Vector-5" data-name="Vector" d="M4.392,1.37H.685A.69.69,0,0,1,0,.685.69.69,0,0,1,.685,0H4.392a.685.685,0,0,1,0,1.37Z" transform="translate(3.618 4.449)" fill="#393939"/>
  <path id="Vector-6" data-name="Vector" d="M.685,1.99A.69.69,0,0,1,0,1.306V.685A.69.69,0,0,1,.685,0,.69.69,0,0,1,1.37.685v.621A.69.69,0,0,1,.685,1.99Z" transform="translate(5.435 3.851)" fill="#393939"/>
  <path id="Vector-7" data-name="Vector" d="M.685,4.264a.685.685,0,1,1,0-1.37,2.155,2.155,0,0,0,2.1-2.21.685.685,0,1,1,1.37,0A3.528,3.528,0,0,1,.685,4.264Z" transform="translate(3.629 4.407)" fill="#393939"/>
  <path id="Vector-8" data-name="Vector" d="M2.374,2.283A2.826,2.826,0,0,1,.137,1.1a.685.685,0,1,1,1.1-.822A1.443,1.443,0,0,0,2.374.922a.69.69,0,0,1,.685.685A.682.682,0,0,1,2.374,2.283Z" transform="translate(5.569 6.32)" fill="#393939"/>
  <path id="Vector-9" data-name="Vector" d="M7.076,7.761A7.088,7.088,0,0,1,0,.685.69.69,0,0,1,.685,0,.69.69,0,0,1,1.37.685a5.717,5.717,0,0,0,4.41,5.56l-.247-.411a.686.686,0,1,1,1.178-.7l.959,1.6a.68.68,0,0,1,.009.685A.713.713,0,0,1,7.076,7.761Z" transform="translate(1.141 12.098)" fill="#393939"/>
  <path id="Vector-10" data-name="Vector" d="M7.082,7.761A.69.69,0,0,1,6.4,7.076a5.717,5.717,0,0,0-4.41-5.56l.247.411a.686.686,0,1,1-1.178.7L.1,1.032A.68.68,0,0,1,.088.347.669.669,0,0,1,.681,0,7.088,7.088,0,0,1,7.757,7.076.676.676,0,0,1,7.082,7.761Z" transform="translate(12.092 1.141)" fill="#393939"/>
  <path id="Vector-11" data-name="Vector" d="M0,0H21V21H0Z" transform="translate(21 21) rotate(180)" fill="none" opacity="0"/>
</svg>
