<svg id="lock" xmlns="http://www.w3.org/2000/svg" width="20" height="20" viewBox="0 0 20 20">
  <path id="Vector" d="M10.625,7.917A.63.63,0,0,1,10,7.292V5.625C10,3,9.258,1.25,5.625,1.25S1.25,3,1.25,5.625V7.292a.63.63,0,0,1-.625.625A.63.63,0,0,1,0,7.292V5.625C0,3.208.583,0,5.625,0S11.25,3.208,11.25,5.625V7.292A.63.63,0,0,1,10.625,7.917Z" transform="translate(4.375 1.042)" fill="#393939"/>
  <path id="Vector-2" data-name="Vector" d="M2.708,5.417A2.708,2.708,0,1,1,5.417,2.708,2.714,2.714,0,0,1,2.708,5.417Zm0-4.167A1.458,1.458,0,1,0,4.167,2.708,1.465,1.465,0,0,0,2.708,1.25Z" transform="translate(7.292 10.625)" fill="#393939"/>
  <path id="Vector-3" data-name="Vector" d="M13.125,11.25H4.792C1.117,11.25,0,10.133,0,6.458V4.792C0,1.117,1.117,0,4.792,0h8.333c3.675,0,4.792,1.117,4.792,4.792V6.458C17.917,10.133,16.8,11.25,13.125,11.25Zm-8.333-10c-2.983,0-3.542.567-3.542,3.542V6.458C1.25,9.433,1.808,10,4.792,10h8.333c2.983,0,3.542-.567,3.542-3.542V4.792c0-2.975-.558-3.542-3.542-3.542Z" transform="translate(1.042 7.708)" fill="#393939"/>
  <path id="Vector-4" data-name="Vector" d="M0,0H20V20H0Z" fill="none" opacity="0"/>
</svg>
