<svg xmlns="http://www.w3.org/2000/svg" width="24" height="24" viewBox="0 0 24 24">
  <g id="Group_101" data-name="Group 101" transform="translate(-201 -597)">
    <g id="vuesax_outline_microphone-2" data-name="vuesax/outline/microphone-2" transform="translate(-35 409)">
      <g id="microphone-2">
        <path id="Vector" d="M4.75,15A4.754,4.754,0,0,1,0,10.25V4.75a4.75,4.75,0,0,1,9.5,0v5.5A4.754,4.754,0,0,1,4.75,15Zm0-13.5A3.256,3.256,0,0,0,1.5,4.75v5.5a3.25,3.25,0,0,0,6.5,0V4.75A3.256,3.256,0,0,0,4.75,1.5Z" transform="translate(243.25 189.25)" fill="#242424"/>
        <path id="Vector-2" data-name="Vector" d="M8.4,10.85A8.412,8.412,0,0,1,0,2.45V.75A.755.755,0,0,1,.75,0,.755.755,0,0,1,1.5.75v1.7a6.9,6.9,0,0,0,13.8,0V.75a.75.75,0,0,1,1.5,0v1.7A8.412,8.412,0,0,1,8.4,10.85Z" transform="translate(239.6 196.9)" fill="#242424"/>
        <path id="Vector-3" data-name="Vector" d="M3.525,1.735a.824.824,0,0,1-.26-.04,3.254,3.254,0,0,0-2.26,0A.75.75,0,1,1,.495.285a4.89,4.89,0,0,1,3.29,0,.749.749,0,0,1,.45.96A.776.776,0,0,1,3.525,1.735Z" transform="translate(245.865 193.445)" fill="#242424"/>
        <path id="Vector-4" data-name="Vector" d="M2.357,1.605a.693.693,0,0,1-.2-.03,2.26,2.26,0,0,0-1.21,0A.746.746,0,1,1,.557.135a3.771,3.771,0,0,1,2,0,.751.751,0,0,1,.53.92A.759.759,0,0,1,2.357,1.605Z" transform="translate(246.443 195.695)" fill="#242424"/>
        <path id="Vector-5" data-name="Vector" d="M.75,4.5A.755.755,0,0,1,0,3.75v-3A.755.755,0,0,1,.75,0,.755.755,0,0,1,1.5.75v3A.755.755,0,0,1,.75,4.5Z" transform="translate(247.25 206.25)" fill="#242424"/>
        <path id="Vector-6" data-name="Vector" d="M0,0H24V24H0Z" transform="translate(236 188)" fill="none" opacity="0"/>
      </g>
    </g>
  </g>
</svg>
