<svg xmlns="http://www.w3.org/2000/svg" width="24" height="24" viewBox="0 0 24 24">
  <g id="note" transform="translate(-428 -252)">
    <path id="Vector" d="M12.75,19.25h-8C1.73,19.25,0,17.52,0,14.5V4.75C0,1.6,1.6,0,4.75,0A.755.755,0,0,1,5.5.75,1.5,1.5,0,0,0,7,2.25h3.5A1.5,1.5,0,0,0,12,.75.755.755,0,0,1,12.75,0C15.9,0,17.5,1.6,17.5,4.75V14.5C17.5,17.52,15.77,19.25,12.75,19.25ZM4.1,1.52c-1.58.13-2.6.84-2.6,3.23V14.5c0,2.22,1.03,3.25,3.25,3.25h8c2.22,0,3.25-1.03,3.25-3.25V4.75c0-2.39-1.02-3.09-2.6-3.23a3.006,3.006,0,0,1-2.9,2.23H7a2.973,2.973,0,0,1-2.12-.88A3.021,3.021,0,0,1,4.1,1.52Z" transform="translate(431.25 255.5)" fill="#fff"/>
    <path id="Vector-2" data-name="Vector" d="M6.5,6H3A3,3,0,0,1,0,3,3.009,3.009,0,0,1,3,0H6.5a3,3,0,0,1,3,3A3.009,3.009,0,0,1,6.5,6ZM3,1.5a1.5,1.5,0,0,0,0,3H6.5a1.5,1.5,0,0,0,0-3Z" transform="translate(435.25 253.25)" fill="#fff"/>
    <path id="Vector-3" data-name="Vector" d="M4.75,1.5h-4A.755.755,0,0,1,0,.75.755.755,0,0,1,.75,0h4A.755.755,0,0,1,5.5.75.755.755,0,0,1,4.75,1.5Z" transform="translate(435.25 264.25)" fill="#fff"/>
    <path id="Vector-4" data-name="Vector" d="M8.75,1.5h-8A.755.755,0,0,1,0,.75.755.755,0,0,1,.75,0h8A.755.755,0,0,1,9.5.75.755.755,0,0,1,8.75,1.5Z" transform="translate(435.25 268.25)" fill="#fff"/>
    <path id="Vector-5" data-name="Vector" d="M0,0H24V24H0Z" transform="translate(428 252)" fill="none" opacity="0"/>
    <path id="Vector-6" data-name="Vector" d="M0,0H24V24H0Z" transform="translate(428 252)" fill="none" opacity="0"/>
  </g>
</svg>
