<svg xmlns="http://www.w3.org/2000/svg" width="21" height="21" viewBox="0 0 21 21">
  <g id="vuesax_outline_setting" data-name="vuesax/outline/setting" transform="translate(-236 -190)">
    <g id="setting" transform="translate(236 190)">
      <path id="Vector" d="M8.26,18.267a3.174,3.174,0,0,1-1.591-.4L2.014,15.15C.118,13.853,0,13.655,0,11.619V6.655C0,4.619.11,4.421,1.972,3.142L6.66.393a3.4,3.4,0,0,1,3.174,0l4.672,2.731c1.9,1.3,2.014,1.495,2.014,3.53v4.956c0,2.036-.11,2.233-1.972,3.513L9.86,17.872A3.229,3.229,0,0,1,8.26,18.267Zm0-16.973a1.914,1.914,0,0,0-.948.215L2.657,4.241c-1.379.945-1.379.945-1.379,2.414v4.956c0,1.469,0,1.469,1.413,2.439l4.621,2.706a2.179,2.179,0,0,0,1.9,0l4.655-2.731c1.371-.945,1.371-.945,1.371-2.414V6.655c0-1.469,0-1.469-1.413-2.439L9.208,1.51A1.914,1.914,0,0,0,8.26,1.295Z" transform="translate(2.24 1.363)" fill="#fff"/>
      <path id="Vector-2" data-name="Vector" d="M3.75,7.5A3.75,3.75,0,1,1,7.5,3.75,3.751,3.751,0,0,1,3.75,7.5Zm0-6A2.25,2.25,0,1,0,6,3.75,2.253,2.253,0,0,0,3.75,1.5Z" transform="translate(6.75 6.75)" fill="#fff"/>
      <path id="Vector-3" data-name="Vector" d="M0,0H21V21H0Z" fill="none" opacity="0"/>
    </g>
  </g>
</svg>
