<svg xmlns="http://www.w3.org/2000/svg" width="20" height="20" viewBox="0 0 20 20">
  <g id="vuesax_outline_share" data-name="vuesax/outline/share" transform="translate(-364 -316)">
    <g id="share" transform="translate(364 316)">
      <path id="Vector" d="M3.676,6.367a.637.637,0,0,1-.625-.558A6.528,6.528,0,0,0,.267,1.134.627.627,0,0,1,.109.267.628.628,0,0,1,.976.109,7.779,7.779,0,0,1,4.284,5.676a.632.632,0,0,1-.558.692Z" transform="translate(13.508 4.524)" fill="#393939"/>
      <path id="Vector-2" data-name="Vector" d="M.628,6.382H.561A.638.638,0,0,1,0,5.69,7.8,7.8,0,0,1,3.261.115.628.628,0,0,1,3.986,1.14,6.539,6.539,0,0,0,1.245,5.824.617.617,0,0,1,.628,6.382Z" transform="translate(2.28 4.551)" fill="#393939"/>
      <path id="Vector-3" data-name="Vector" d="M3.852,2.019A7.765,7.765,0,0,1,.344,1.185.626.626,0,0,1,.91.069a6.586,6.586,0,0,0,5.783.05.624.624,0,0,1,.542,1.125A7.681,7.681,0,0,1,3.852,2.019Z" transform="translate(6.198 16.823)" fill="#393939"/>
      <path id="Vector-4" data-name="Vector" d="M2.942,5.883A2.942,2.942,0,1,1,5.883,2.942,2.941,2.941,0,0,1,2.942,5.883Zm0-4.625A1.692,1.692,0,1,0,4.633,2.95,1.693,1.693,0,0,0,2.942,1.258Z" transform="translate(7.108 1.15)" fill="#393939"/>
      <path id="Vector-5" data-name="Vector" d="M2.942,5.883A2.942,2.942,0,1,1,5.883,2.942,2.941,2.941,0,0,1,2.942,5.883Zm0-4.633A1.692,1.692,0,1,0,4.633,2.942,1.693,1.693,0,0,0,2.942,1.25Z" transform="translate(1.083 11.342)" fill="#393939"/>
      <path id="Vector-6" data-name="Vector" d="M2.942,5.883A2.942,2.942,0,1,1,5.883,2.942,2.941,2.941,0,0,1,2.942,5.883Zm0-4.633A1.692,1.692,0,1,0,4.633,2.942,1.693,1.693,0,0,0,2.942,1.25Z" transform="translate(13.033 11.342)" fill="#393939"/>
      <path id="Vector-7" data-name="Vector" d="M0,0H20V20H0Z" fill="none" opacity="0"/>
    </g>
  </g>
</svg>
