<svg xmlns="http://www.w3.org/2000/svg" width="23" height="23" viewBox="0 0 23 23">
  <g id="vuesax_outline_star" data-name="vuesax/outline/star" transform="translate(-108 -188)">
    <g id="star" transform="translate(108 188)">
      <path id="Vector" d="M15.647,20.35a3.933,3.933,0,0,1-1.964-.639l-2.851-1.687a1.357,1.357,0,0,0-1.154,0l-2.86,1.687c-1.688,1-2.679.6-3.127.276s-1.125-1.153-.677-3.06L3.69,14a1.345,1.345,0,0,0-.305-1.058L1.02,10.58A2.588,2.588,0,0,1,.1,7.892,2.619,2.619,0,0,1,2.412,6.243l3.042-.505a1.364,1.364,0,0,0,.82-.61L7.962,1.763C8.724.229,9.726,0,10.25,0s1.526.229,2.288,1.763l1.678,3.355a1.411,1.411,0,0,0,.83.61l3.042.505A2.591,2.591,0,0,1,20.4,7.883a2.627,2.627,0,0,1-.925,2.688l-2.365,2.373A1.371,1.371,0,0,0,16.81,14l.677,2.926c.439,1.906-.238,2.736-.677,3.06A1.951,1.951,0,0,1,15.647,20.35Zm-5.4-3.889a2.61,2.61,0,0,1,1.306.334l2.851,1.687c.83.5,1.354.5,1.554.353s.343-.648.133-1.582l-.677-2.926a2.788,2.788,0,0,1,.687-2.392L18.469,9.57c.467-.467.677-.925.582-1.239s-.543-.572-1.192-.677l-3.042-.505a2.8,2.8,0,0,1-1.869-1.382L11.27,2.411c-.305-.61-.687-.972-1.02-.972s-.715.362-1.011.972L7.552,5.767A2.8,2.8,0,0,1,5.683,7.149l-3.032.505c-.648.1-1.087.362-1.192.677s.114.782.582,1.239l2.365,2.364a2.779,2.779,0,0,1,.687,2.392l-.677,2.926c-.219.944-.067,1.439.133,1.582s.715.133,1.554-.353l2.851-1.687A2.549,2.549,0,0,1,10.25,16.461Z" transform="translate(1.25 1.32)" fill="#393939"/>
      <path id="Vector-2" data-name="Vector" d="M0,0H23V23H0Z" fill="none" opacity="0"/>
    </g>
  </g>
</svg>
