<svg xmlns="http://www.w3.org/2000/svg" width="22" height="22" viewBox="0 0 22 22">
  <g id="vuesax_outline_gallery-add" data-name="vuesax/outline/gallery-add" transform="translate(-748 -252)">
    <g id="gallery-add" transform="translate(748 252)">
      <path id="Vector" d="M2.75,5.5A2.75,2.75,0,1,1,5.5,2.75,2.748,2.748,0,0,1,2.75,5.5Zm0-4A1.25,1.25,0,1,0,4,2.75,1.25,1.25,0,0,0,2.75,1.5Z" transform="translate(5.574 4.682)" fill="#242424"/>
      <path id="Vector-2" data-name="Vector" d="M12.471,19.5H7.029C2.1,19.5,0,17.4,0,12.471V7.029C0,2.1,2.1,0,7.029,0h3.628a.685.685,0,0,1,.68.68.685.685,0,0,1-.68.68H7.029C2.848,1.36,1.36,2.848,1.36,7.029v5.442c0,4.181,1.487,5.669,5.669,5.669h5.442c4.181,0,5.669-1.487,5.669-5.669V7.936a.68.68,0,1,1,1.36,0v4.535C19.5,17.4,17.4,19.5,12.471,19.5Z" transform="translate(1.25 1.25)" fill="#242424"/>
      <path id="Vector-3" data-name="Vector" d="M6.25,1.5H.75A.755.755,0,0,1,0,.75.755.755,0,0,1,.75,0h5.5A.755.755,0,0,1,7,.75.755.755,0,0,1,6.25,1.5Z" transform="translate(13 3.872)" fill="#242424"/>
      <path id="Vector-4" data-name="Vector" d="M.75,7A.755.755,0,0,1,0,6.25V.75A.755.755,0,0,1,.75,0,.755.755,0,0,1,1.5.75v5.5A.755.755,0,0,1,.75,7Z" transform="translate(16.172 1.5)" fill="#242424"/>
      <path id="Vector-5" data-name="Vector" d="M.676,8.453a.664.664,0,0,1-.56-.33A.8.8,0,0,1,.3,7.082l4.457-3.31a2.51,2.51,0,0,1,3.209.19l.3.29a1.234,1.234,0,0,0,1.663,0L13.684.683a2.5,2.5,0,0,1,3.435,0l1.473,1.4a.813.813,0,0,1,.072,1.06.639.639,0,0,1-.958.08l-1.473-1.4a1.234,1.234,0,0,0-1.663,0l-3.761,3.57a2.5,2.5,0,0,1-3.435,0l-.3-.29a1.242,1.242,0,0,0-1.564-.08L1.064,8.332A.735.735,0,0,1,.676,8.453Z" transform="translate(1.923 9.801)" fill="#242424"/>
      <path id="Vector-6" data-name="Vector" d="M0,0H22V22H0Z" fill="none" opacity="0"/>
    </g>
  </g>
</svg>
