<svg xmlns="http://www.w3.org/2000/svg" width="23" height="23" viewBox="0 0 23 23">
  <g id="vuesax_outline_note-add" data-name="vuesax/outline/note-add" transform="translate(-364 -316)">
    <g id="note-add" transform="translate(364 316)">
      <path id="Vector" d="M.75,6.5A.755.755,0,0,1,0,5.75v-5A.755.755,0,0,1,.75,0,.755.755,0,0,1,1.5.75v5A.755.755,0,0,1,.75,6.5Z" transform="translate(8.418 11.55)" fill="#393939"/>
      <path id="Vector-2" data-name="Vector" d="M5.75,1.5h-5A.755.755,0,0,1,0,.75.755.755,0,0,1,.75,0h5A.755.755,0,0,1,6.5.75.755.755,0,0,1,5.75,1.5Z" transform="translate(5.893 14.094)" fill="#393939"/>
      <path id="Vector-3" data-name="Vector" d="M.75,4.5A.755.755,0,0,1,0,3.75v-3A.755.755,0,0,1,.75,0,.755.755,0,0,1,1.5.75v3A.755.755,0,0,1,.75,4.5Z" transform="translate(6.928 1.25)" fill="#393939"/>
      <path id="Vector-4" data-name="Vector" d="M.75,4.5A.755.755,0,0,1,0,3.75v-3A.755.755,0,0,1,.75,0,.755.755,0,0,1,1.5.75v3A.755.755,0,0,1,.75,4.5Z" transform="translate(14.572 1.25)" fill="#393939"/>
      <path id="Vector-5" data-name="Vector" d="M6.325,19.13c-2.344,0-3.891-.513-4.859-1.616C.346,16.251.166,14.359.128,12.677L0,6.814C-.091,2.319,1.4.447,5.291.152L12.921,0h.038c3.9.133,5.457,1.939,5.552,6.443l.114,5.863c.038,1.682-.076,3.583-1.139,4.885-.968,1.188-2.6,1.768-5.134,1.825l-5.694.114Zm6.6-17.714-7.564.152C2.7,1.777,1.342,2.632,1.428,6.785l.123,5.863c.038,2.015.332,3.193.978,3.925.721.817,2.021,1.178,4.109,1.131l5.694-.114c2.078-.038,3.369-.456,4.062-1.3.617-.751.864-1.939.816-3.953L17.1,6.472C17,2.328,15.616,1.511,12.921,1.416Z" transform="translate(2.186 2.68)" fill="#393939"/>
      <path id="Vector-6" data-name="Vector" d="M0,0H23V23H0Z" fill="none" opacity="0"/>
    </g>
  </g>
</svg>
