<svg xmlns="http://www.w3.org/2000/svg" width="24" height="24" viewBox="0 0 24 24">
  <g id="vuesax_outline_trash" data-name="vuesax/outline/trash" transform="translate(-108 -188)">
    <g id="trash" transform="translate(108 188)">
      <path id="Vector" d="M18.754,2.016h-.08a78.776,78.776,0,0,0-15.8-.2l-2.04.2A.755.755,0,0,1,0,1.336a.745.745,0,0,1,.67-.82l2.04-.2a81.144,81.144,0,0,1,16.11.2.751.751,0,0,1,.67.82A.741.741,0,0,1,18.754,2.016Z" transform="translate(2.246 4.714)" fill="#fd4c4c"/>
      <path id="Vector-2" data-name="Vector" d="M.751,4.47a.615.615,0,0,1-.13-.01.753.753,0,0,1-.61-.86l.22-1.31C.391,1.33.611,0,2.941,0h2.62c2.34,0,2.56,1.38,2.71,2.3l.22,1.3a.746.746,0,1,1-1.47.25L6.8,2.55c-.14-.87-.17-1.04-1.23-1.04H2.951c-1.06,0-1.08.14-1.23,1.03l-.23,1.3A.75.75,0,0,1,.751,4.47Z" transform="translate(7.749 1.25)" fill="#fd4c4c"/>
      <path id="Vector-3" data-name="Vector" d="M10.812,14.361H4.392c-3.49,0-3.63-1.93-3.74-3.49L0,.8A.757.757,0,0,1,.7,0a.758.758,0,0,1,.8.7l.65,10.07c.11,1.52.15,2.09,2.24,2.09h6.42c2.1,0,2.14-.57,2.24-2.09L13.7.7a.764.764,0,0,1,.8-.7.751.751,0,0,1,.7.8l-.65,10.07C14.442,12.431,14.3,14.361,10.812,14.361Z" transform="translate(4.398 8.389)" fill="#fd4c4c"/>
      <path id="Vector-4" data-name="Vector" d="M4.08,1.5H.75A.755.755,0,0,1,0,.75.755.755,0,0,1,.75,0H4.08a.755.755,0,0,1,.75.75A.755.755,0,0,1,4.08,1.5Z" transform="translate(9.58 15.75)" fill="#fd4c4c"/>
      <path id="Vector-5" data-name="Vector" d="M5.75,1.5h-5A.755.755,0,0,1,0,.75.755.755,0,0,1,.75,0h5A.755.755,0,0,1,6.5.75.755.755,0,0,1,5.75,1.5Z" transform="translate(8.75 11.75)" fill="#fd4c4c"/>
      <path id="Vector-6" data-name="Vector" d="M0,0H24V24H0Z" fill="none" opacity="0"/>
    </g>
  </g>
</svg>
